<svg width="133" height="50" viewBox="0 0 133 50" fill="none" xmlns="http://www.w3.org/2000/svg">
<path d="M20.5726 0.00122337C20.9817 0.159038 21.3945 0.308289 21.7975 0.478338C22.1133 0.611685 22.4192 0.765829 22.7239 0.921197C22.907 1.01417 23.0028 1.16587 23.0593 1.37262C23.3173 2.31339 23.5827 3.25416 23.8726 4.18515C24.0741 4.83109 24.095 4.82375 24.7019 5.10634C25.7143 5.57856 26.7255 6.05323 27.7378 6.52423C27.9332 6.61476 28.1285 6.71018 28.3337 6.77257C28.5205 6.83007 28.5905 6.95119 28.5782 7.12123C28.5635 7.31453 28.5278 7.5066 28.4885 7.69622C28.4639 7.81855 28.4172 7.936 28.3706 8.08647C28.5438 8.17088 28.7011 8.2712 28.8743 8.32992C29.6999 8.60885 30.5292 8.87677 31.3561 9.14836C31.3831 9.15692 31.4114 9.16548 31.4654 9.18139C31.4937 9.31107 31.5232 9.45298 31.5539 9.59366C31.6583 10.0806 31.7578 10.5687 31.8696 11.0531C31.9016 11.1914 31.8672 11.2819 31.7775 11.3932C31.3622 11.9071 31.0796 12.5004 30.7958 13.0901C30.7541 13.1769 30.7651 13.3017 30.7848 13.4032C31.0514 14.7441 31.3204 16.0836 31.5969 17.422C31.6214 17.5419 31.689 17.6557 31.7517 17.7633C32.1153 18.3934 32.1203 18.3934 31.8168 19.0491C31.0391 20.7239 30.254 22.3962 29.4812 24.0722C29.2859 24.4968 29.0868 24.9225 29.0021 25.3898C28.9775 25.5281 28.8903 25.6553 28.8153 25.8278C28.2108 25.2675 27.6322 24.7329 27.0449 24.1885C27.2022 23.8924 27.3643 23.6147 27.5007 23.3248C27.8656 22.5443 27.8496 22.7351 27.3434 22.2042C24.8998 19.6351 22.4389 17.0807 19.9915 14.5153C19.763 14.2755 19.489 14.2523 19.2089 14.2902C18.6855 14.3611 18.1633 14.4566 17.6461 14.5679C17.4544 14.6095 17.3352 14.563 17.2025 14.4394C16.1533 13.4669 15.0992 12.4992 14.045 11.5315C13.8571 11.359 13.6642 11.1926 13.4688 11.0287C13.2845 10.8733 13.1727 10.8623 12.9639 10.9834C12.7267 11.1204 12.5707 11.3357 12.4356 11.5645C12.1223 12.0942 11.8139 12.6276 11.5006 13.1586C11.0939 13.8498 10.686 14.5397 10.2769 15.2297C10.1872 15.3802 10.0877 15.5246 9.9759 15.6983C9.85918 15.6506 9.74983 15.6163 9.65032 15.5637C9.19082 15.3215 8.72395 15.0903 8.28165 14.8211C7.9831 14.6401 7.68824 14.5789 7.36266 14.6841C7.14151 14.7551 6.96582 14.6988 6.79135 14.5605C6.38469 14.2388 5.99645 13.8975 5.6377 13.4987C5.70035 13.3837 5.75318 13.2821 5.81093 13.1818C6.27166 12.3744 6.73484 11.5706 7.19065 10.7608C7.40689 10.3766 7.38477 10.231 7.10096 9.89828C7.05059 9.83834 7.00145 9.77717 6.95845 9.71233C6.85524 9.55696 6.8405 9.4175 6.92527 9.22543C7.38846 8.17089 7.82953 7.10533 8.27674 6.04345C8.30745 5.97127 8.32588 5.89419 8.35905 5.82446C8.47823 5.57367 8.434 5.37304 8.22636 5.17363C7.58872 4.56439 6.96582 3.93925 6.338 3.32145C6.29623 3.27985 6.25323 3.24193 6.18442 3.17709C6.47683 2.8529 6.76555 2.4969 7.18574 2.39291C7.71404 2.26323 8.25831 2.28892 8.70552 2.69631C9.16993 3.11959 9.19696 3.15262 9.71789 2.8162C10.4538 2.34153 11.2856 2.22409 12.11 2.0626C13.2636 1.83628 14.421 1.63198 15.5759 1.41055C15.7663 1.37384 15.9543 1.31145 16.1361 1.2405C17.2419 0.812317 18.3538 0.404935 19.5025 0.103986C19.6241 0.0721788 19.7445 0.0354777 19.8662 0C20.1008 0.00122337 20.3367 0.00122337 20.5726 0.00122337Z" fill="#00519E"/>
<path d="M0 33.3746C0.0970597 33.3306 0.197805 33.2939 0.289951 33.2413C0.860023 32.9171 1.42764 32.5892 2.00508 32.2577C5.02499 36.8453 9.26859 39.3129 14.7912 39.6187C14.7912 40.3613 14.7912 41.1051 14.7912 41.8697C14.5835 41.8697 14.3894 41.8807 14.1965 41.8685C10.3805 41.6263 6.97479 40.3283 4.00156 37.9305C2.50881 36.7279 1.25318 35.3124 0.221149 33.7C0.15849 33.6034 0.0737163 33.5214 0 33.4333C0 33.4138 0 33.3942 0 33.3746Z" fill="#F78A0F"/>
<path d="M80.7759 20.8253C81.2968 20.8253 81.787 20.8253 82.2772 20.8265C82.3141 20.8265 82.3509 20.8376 82.4099 20.8461C82.4099 22.6885 82.4099 24.5211 82.4099 26.4039C82.4738 26.3501 82.507 26.3342 82.523 26.3072C82.8805 25.6931 83.4235 25.3334 84.1103 25.1989C85.3684 24.953 86.4459 25.2637 87.2691 26.2803C87.5811 26.6657 87.7814 27.111 87.9042 27.5906C88.1708 28.6292 88.1524 29.6654 87.8146 30.6808C87.4447 31.7928 86.6978 32.5354 85.5195 32.7642C84.3597 32.9893 83.3338 32.7422 82.55 31.7953C82.5279 31.7684 82.4959 31.7488 82.4259 31.6913C82.4259 31.9935 82.4259 32.2504 82.4259 32.5256C81.8607 32.5256 81.3263 32.5256 80.7759 32.5256C80.7759 28.6304 80.7759 24.7462 80.7759 20.8253ZM82.3866 28.6818C82.3792 29.4892 82.4824 30.0618 82.8387 30.5572C83.3215 31.2276 83.9887 31.4637 84.7959 31.3255C85.5318 31.1995 85.9741 30.7456 86.1842 30.0556C86.3881 29.3865 86.3955 28.7087 86.2088 28.0359C85.963 27.1465 85.3893 26.6596 84.4678 26.5972C83.657 26.5421 82.9702 26.8749 82.6176 27.6652C82.4431 28.0567 82.3878 28.4702 82.3866 28.6818Z" fill="#00519E"/>
<path d="M48.1548 31.7477C48.1548 33.1227 48.1548 34.4966 48.1548 35.8888C47.6007 35.8888 47.0675 35.8888 46.5171 35.8888C46.5171 32.3838 46.5171 28.8923 46.5171 25.3825C47.0663 25.3825 47.6007 25.3825 48.1548 25.3825C48.1548 25.7213 48.1548 26.0406 48.1548 26.4162C48.2163 26.3538 48.247 26.3343 48.2629 26.3061C48.6192 25.692 49.1623 25.3335 49.8503 25.199C51.0703 24.9604 52.1269 25.2479 52.9525 26.2119C53.2093 26.5116 53.3985 26.8554 53.5263 27.2273C53.9452 28.4458 53.9354 29.6679 53.4808 30.8693C52.7572 32.779 50.8319 33.0848 49.5763 32.6933C49.1045 32.5465 48.7163 32.2737 48.387 31.9128C48.3293 31.8504 48.2728 31.788 48.215 31.7244C48.1954 31.733 48.1745 31.7403 48.1548 31.7477ZM52.1023 29.0244C52.0507 28.6892 52.0286 28.3663 51.9475 28.058C51.7104 27.1564 51.1538 26.6744 50.225 26.5997C49.4019 26.5337 48.6905 26.864 48.3575 27.6775C48.231 27.9883 48.1634 28.3332 48.1315 28.6684C48.0713 29.3009 48.1646 29.9187 48.5111 30.4692C48.9313 31.1384 49.5579 31.4186 50.3356 31.3537C51.16 31.284 51.6944 30.8314 51.9217 30.0484C52.0188 29.7169 52.0446 29.3633 52.1023 29.0244Z" fill="#00519E"/>
<path d="M36.0446 32.7875C35.3652 32.3973 34.7226 32.0278 34.0481 31.6412C35.2976 29.3474 35.934 26.9068 35.9365 24.312C35.9389 21.7136 35.3123 19.2681 34.0469 16.9461C34.7042 16.5669 35.3529 16.1937 36.0372 15.7998C37.181 17.8477 37.8777 20.0131 38.1308 22.3142C38.5374 26.0039 37.8396 29.482 36.0446 32.7875Z" fill="#00519E"/>
<path d="M95.2619 40.8041C95.2619 40.4493 95.2619 40.0933 95.2619 39.7153C95.6747 39.7153 96.0593 39.7153 96.4635 39.7153C96.4696 39.8107 96.4795 39.8951 96.4795 39.9808C96.4795 42.2574 96.4807 44.5341 96.4745 46.8108C96.4733 47.1032 96.4549 47.398 96.4143 47.6868C96.3173 48.3841 95.9487 48.9187 95.3811 49.3261C94.9757 49.616 94.5211 49.7873 94.0358 49.89C93.2028 50.0662 92.3747 50.0295 91.5626 49.7873C90.2357 49.3909 89.6361 48.3878 89.6288 47.2378C90.0637 47.2378 90.4998 47.2378 90.9483 47.2378C90.9667 47.3626 90.9839 47.4874 91.0023 47.6109C91.0687 48.0795 91.3107 48.4379 91.7334 48.6447C91.9668 48.7597 92.2273 48.8404 92.484 48.8832C93.0013 48.9701 93.5234 48.9517 94.0259 48.7829C94.7594 48.5358 95.1808 48.0146 95.2533 47.2549C95.3098 46.664 95.3037 46.0658 95.327 45.4517C95.1759 45.4688 95.1526 45.5777 95.1022 45.6474C94.6562 46.2603 94.0677 46.675 93.3146 46.7839C91.8169 47.0005 90.4654 46.3912 89.8487 44.9966C89.2921 43.7365 89.3032 42.4422 89.8659 41.1858C90.4446 39.8951 91.6769 39.3581 92.9927 39.4498C93.9264 39.5159 94.6538 39.9355 95.1526 40.7307C95.1685 40.7551 95.187 40.7784 95.2066 40.7992C95.2128 40.8053 95.2251 40.8029 95.2619 40.8041ZM95.3233 43.2312C95.2988 43.0025 95.284 42.8373 95.2644 42.6734C95.1219 41.5087 94.3724 40.7282 93.2089 40.6157C92.1621 40.5141 91.1928 40.9558 90.8697 42.1314C90.6657 42.8752 90.6878 43.6215 90.9569 44.3494C91.2014 45.01 91.6707 45.4431 92.3636 45.5997C92.6376 45.6621 92.9276 45.6914 93.2089 45.6792C94.2213 45.6376 94.9499 45.0443 95.1931 44.0668C95.2644 43.7744 95.2865 43.471 95.3233 43.2312Z" fill="#F78A00"/>
<path d="M46.5735 40.8739C46.5735 40.447 46.5735 40.0922 46.5735 39.7142C46.9863 39.7142 47.3709 39.7142 47.7898 39.7142C47.7898 39.8255 47.7898 39.9209 47.7898 40.0151C47.7898 42.2441 47.7923 44.4718 47.7874 46.7008C47.7861 47.0226 47.7702 47.3468 47.7296 47.6661C47.6362 48.3866 47.2541 48.9347 46.6632 49.3482C46.2627 49.6283 45.8155 49.7935 45.34 49.8926C44.5266 50.0614 43.7194 50.0272 42.9221 49.7996C41.7156 49.4558 41.0251 48.6068 40.933 47.3639C40.9305 47.3272 40.9403 47.2893 40.9453 47.233C41.3802 47.233 41.8077 47.233 42.2562 47.233C42.2746 47.3504 42.2955 47.4728 42.3115 47.5951C42.3815 48.1004 42.6481 48.4686 43.1088 48.6778C43.3288 48.7781 43.5696 48.8503 43.8091 48.887C44.3178 48.9653 44.8289 48.9494 45.3228 48.7867C45.9838 48.5701 46.3904 48.1187 46.5403 47.4397C46.619 47.085 46.6484 45.8763 46.5833 45.4334C46.5416 45.4787 46.5072 45.5068 46.4838 45.5423C45.2626 47.4569 42.3569 47.1082 41.3335 45.338C41.0546 44.856 40.8777 44.3422 40.8163 43.7929C40.7266 42.9781 40.7696 42.1731 41.0767 41.3987C41.6308 39.998 42.868 39.3606 44.2736 39.445C45.2183 39.5025 45.958 39.9221 46.4642 40.7283C46.4826 40.7614 46.5059 40.7871 46.5735 40.8739ZM42.0203 43.1604C42.0829 43.5054 42.1174 43.8577 42.2132 44.1929C42.3815 44.7838 42.739 45.2426 43.3214 45.4823C43.5536 45.5778 43.8079 45.6438 44.0573 45.6683C45.1409 45.776 46.1349 45.3404 46.4814 44.1415C46.6423 43.5873 46.6644 43.0246 46.5379 42.4606C46.3364 41.5614 45.8363 40.9241 44.9124 40.6769C44.5574 40.5815 44.1974 40.5779 43.8337 40.6402C43.1371 40.7601 42.6211 41.1137 42.3152 41.756C42.1051 42.2 42.0547 42.6723 42.0203 43.1604Z" fill="#F78A00"/>
<path d="M123.02 32.5306C122.487 32.5306 121.952 32.5306 121.385 32.5306C121.385 32.259 121.385 32.0008 121.385 31.673C121.277 31.7892 121.219 31.8504 121.162 31.914C120.491 32.6578 119.638 32.9208 118.663 32.8193C117.228 32.6713 116.341 31.8577 115.946 30.5034C115.648 29.4856 115.649 28.4592 115.954 27.4389C116.089 26.985 116.303 26.5666 116.613 26.2045C117.331 25.3653 118.255 25.0325 119.344 25.1439C119.604 25.1708 119.867 25.2332 120.114 25.3188C120.628 25.4962 120.913 25.7531 121.349 26.3795C121.417 26.0369 121.35 25.7201 121.393 25.4154C121.603 25.3543 122.592 25.3371 123.004 25.3861C123.011 25.3922 123.019 25.3995 123.025 25.4057C123.031 25.413 123.041 25.4203 123.041 25.4289C123.047 25.5451 123.058 25.6626 123.058 25.7788C123.058 27.998 123.056 30.2172 123.053 32.4351C123.054 32.4633 123.035 32.4902 123.02 32.5306ZM121.451 28.9192C121.423 28.6769 121.408 28.4323 121.363 28.1937C121.182 27.2395 120.6 26.6877 119.633 26.6021C118.823 26.5299 118.147 26.87 117.779 27.5845C117.624 27.8842 117.542 28.2047 117.505 28.5363C117.44 29.1369 117.475 29.7278 117.717 30.2906C117.898 30.7114 118.187 31.0356 118.62 31.2081C119.587 31.5947 120.65 31.2778 121.14 30.2832C121.354 29.8538 121.437 29.3963 121.451 28.9192Z" fill="#00519E"/>
<path d="M66.211 32.5269C66.211 32.2541 66.211 32.0057 66.211 31.6864C66.109 31.7941 66.0574 31.8455 66.0083 31.9005C65.3239 32.6639 64.4541 32.9257 63.4577 32.8144C62.046 32.6566 61.1713 31.8479 60.7867 30.5206C60.4574 29.3853 60.4611 28.2378 60.9059 27.1257C61.3076 26.1201 62.0264 25.4424 63.1088 25.1952C63.7169 25.057 64.3202 25.0925 64.9074 25.2968C65.3841 25.4619 65.7712 25.7543 66.0476 26.1813C66.0832 26.2363 66.1213 26.2889 66.2122 26.3379C66.2122 26.0259 66.2122 25.7127 66.2122 25.3824C66.7884 25.3824 67.3229 25.3824 67.877 25.3824C67.877 27.768 67.877 30.1364 67.877 32.5257C67.3315 32.5269 66.797 32.5269 66.211 32.5269ZM66.2847 28.9326C66.2552 28.6806 66.2417 28.4262 66.1926 28.1778C66.0439 27.423 65.5721 26.6914 64.5106 26.6009C63.6174 26.525 62.9036 26.9116 62.5866 27.6505C62.2021 28.5461 62.2107 29.4562 62.5866 30.3554C62.7476 30.7396 63.0289 31.0283 63.4147 31.191C64.3595 31.5898 65.437 31.3182 65.9554 30.3224C66.1827 29.8881 66.2687 29.4208 66.2847 28.9326Z" fill="#00519E"/>
<path d="M90.9114 12.2631C90.9114 11.9535 90.9114 11.6452 90.9114 11.3162C91.4717 11.3162 92.0061 11.3162 92.5614 11.3162C92.5614 13.6981 92.5614 16.0665 92.5614 18.4557C92.0147 18.4557 91.4815 18.4557 90.9151 18.4557C90.9151 18.1915 90.9151 17.9334 90.9151 17.6018C90.8193 17.7009 90.7726 17.7437 90.732 17.7915C90.017 18.6074 89.1066 18.8705 88.0525 18.7298C86.7587 18.5573 85.9429 17.8159 85.5252 16.6121C85.4331 16.3467 85.3667 16.0677 85.325 15.7888C85.191 14.9068 85.2254 14.032 85.54 13.1879C85.9417 12.1089 86.6715 11.3724 87.8289 11.118C88.4161 10.9895 89.0009 11.025 89.571 11.2183C90.0698 11.3871 90.4691 11.6917 90.7542 12.1383C90.7849 12.186 90.8181 12.2325 90.8488 12.279C90.8697 12.2716 90.8905 12.2667 90.9114 12.2631ZM87.0032 14.9214C86.9983 15.3655 87.061 15.7974 87.2354 16.2096C87.5893 17.0476 88.3744 17.3706 89.1693 17.2801C89.9851 17.1871 90.5023 16.699 90.7726 15.9527C91.0269 15.2505 91.0257 14.5324 90.8033 13.8228C90.5502 13.0166 89.9851 12.5885 89.1361 12.5297C88.1901 12.4637 87.475 12.9359 87.1691 13.8277C87.0487 14.1813 86.9996 14.5471 87.0032 14.9214Z" fill="#00519E"/>
<path d="M82.7768 18.4569C82.2104 18.4569 81.6834 18.4569 81.1243 18.4569C81.1243 18.1853 81.1243 17.9272 81.1243 17.6703C81.0949 17.6519 81.0654 17.6348 81.0359 17.6165C81.0113 17.6679 80.9954 17.7278 80.9597 17.7706C80.3233 18.5254 79.4915 18.8215 78.5234 18.7579C77.5159 18.6918 76.6915 18.2808 76.1276 17.422C75.8045 16.9314 75.6276 16.3858 75.5416 15.8096C75.4175 14.9777 75.4371 14.1507 75.6988 13.3457C75.9912 12.4441 76.5171 11.7247 77.4078 11.3235C78.1843 10.9736 78.9854 10.954 79.7901 11.217C80.2803 11.3773 80.6722 11.6795 80.9548 12.115C80.9904 12.17 81.0285 12.2226 81.117 12.2703C81.117 11.9572 81.117 11.6428 81.117 11.3112C81.6907 11.3112 82.2252 11.3112 82.7768 11.3112C82.7768 13.7005 82.7768 16.0714 82.7768 18.4569ZM77.2198 14.9177C77.2137 15.3618 77.2764 15.7936 77.4496 16.2059C77.8034 17.05 78.6082 17.3779 79.4104 17.2751C80.214 17.1724 80.7189 16.6892 80.9867 15.9551C81.2325 15.2835 81.2337 14.5935 81.0469 13.9084C80.8074 13.0313 80.1832 12.5529 79.2679 12.5224C78.371 12.493 77.6941 12.9518 77.3955 13.7934C77.2665 14.158 77.2125 14.5336 77.2198 14.9177Z" fill="#00519E"/>
<path d="M113.818 29.2067C112.837 29.2067 111.886 29.2067 110.935 29.2067C109.996 29.2067 109.054 29.2067 108.117 29.2067C108.056 30.3811 108.901 31.2925 110.032 31.3206C110.99 31.3451 111.724 30.9732 112.217 30.1474C112.261 30.0728 112.31 30.0031 112.368 29.915C112.83 30.1743 113.28 30.4264 113.751 30.6894C113.403 31.317 112.971 31.8369 112.384 32.2186C111.568 32.7483 110.662 32.9061 109.709 32.8107C109.352 32.7752 108.989 32.6994 108.65 32.5819C107.733 32.2626 107.069 31.6448 106.699 30.7481C106.252 29.6666 106.209 28.557 106.628 27.4609C107.145 26.1066 108.16 25.3579 109.596 25.1549C110.17 25.0741 110.734 25.1145 111.291 25.2515C112.598 25.5745 113.389 26.4137 113.7 27.7068C113.759 27.9527 113.793 28.2059 113.814 28.4579C113.833 28.6928 113.818 28.9277 113.818 29.2067ZM112.092 28.0824C111.999 27.3692 111.664 26.8774 110.999 26.6547C110.475 26.4785 109.938 26.4773 109.407 26.6388C108.781 26.8296 108.264 27.4731 108.241 28.0824C109.514 28.0824 110.788 28.0824 112.092 28.0824Z" fill="#00519E"/>
<path d="M56.9545 18.7811C55.1448 18.7689 53.539 17.5492 53.1041 15.8426C52.5696 13.7445 53.8916 11.6159 56.0183 11.151C57.9706 10.724 59.8958 11.6868 60.6428 13.4632C61.4869 15.4744 60.4253 17.7816 58.3085 18.5291C58.1057 18.6001 57.8956 18.6588 57.6856 18.6967C57.4435 18.7395 57.1978 18.7542 56.9545 18.7811ZM54.7467 15.0303C54.7344 15.33 54.8438 15.7521 55.0625 16.1448C55.8586 17.57 57.7974 17.6642 58.7299 16.3234C59.3491 15.4328 59.3049 14.1837 58.623 13.342C57.8035 12.3279 56.312 12.263 55.4102 13.205C54.9617 13.6711 54.7566 14.2375 54.7467 15.0303Z" fill="#00519E"/>
<path d="M4.26105 30.1536C3.60744 30.5292 2.96488 30.8987 2.28669 31.2902C1.16128 29.2545 0.570325 27.0915 0.491695 24.7953C0.402007 22.1442 0.999108 19.6486 2.28177 17.2924C2.95996 17.6826 3.60989 18.057 4.2586 18.4313C2.29897 22.3412 2.29406 26.2266 4.26105 30.1536Z" fill="#00519E"/>
<path d="M72.5543 32.5355C71.9805 32.5355 71.4535 32.5355 70.9264 32.5355C70.8625 32.3189 70.8367 25.9855 70.8944 25.4216C71.0984 25.3482 72.1427 25.3372 72.4486 25.4106C72.4486 25.7348 72.4486 26.0651 72.4486 26.4443C72.5187 26.3893 72.558 26.3697 72.5825 26.3379C73.3173 25.3494 74.3444 25.0546 75.5152 25.1316C75.815 25.1512 76.1222 25.2063 76.406 25.3041C77.25 25.5953 77.7083 26.2094 77.8029 27.0878C77.8361 27.3973 77.8447 27.7117 77.8447 28.0237C77.8483 29.4208 77.8471 30.8179 77.8471 32.2149C77.8471 32.3104 77.8471 32.407 77.8471 32.5257C77.277 32.5257 76.7352 32.5257 76.159 32.5257C76.159 32.4119 76.159 32.3067 76.159 32.2027C76.159 30.9818 76.1652 29.7596 76.1529 28.5387C76.1492 28.1999 76.1136 27.8549 76.0435 27.5221C75.917 26.9153 75.5963 26.6511 74.9808 26.5581C74.5532 26.4932 74.1392 26.5336 73.7362 26.6792C73.0998 26.9092 72.7177 27.3569 72.6219 28.0286C72.5862 28.2794 72.5629 28.5338 72.5604 28.7858C72.5531 29.9187 72.5555 31.0527 72.5543 32.1856C72.5543 32.2908 72.5543 32.3972 72.5543 32.5355Z" fill="#00519E"/>
<path d="M95.8037 25.3849C96.3701 25.3849 96.9045 25.3849 97.4611 25.3849C97.4685 25.4791 97.482 25.5623 97.482 25.6467C97.4832 26.7514 97.4992 27.8561 97.4758 28.9608C97.4648 29.4661 97.4169 29.9775 97.3173 30.4729C97.0495 31.8064 96.2865 32.5331 94.9375 32.7655C94.166 32.8976 93.3932 32.8732 92.6302 32.6738C91.7014 32.4315 91.092 31.8529 90.7787 30.9537C90.5969 30.4313 90.5146 29.8894 90.5072 29.3413C90.49 28.0604 90.4986 26.7808 90.4961 25.4999C90.4961 25.4718 90.506 25.4424 90.5109 25.4155C90.7173 25.3531 91.7125 25.3372 92.1535 25.3923C92.1584 25.4987 92.167 25.6113 92.167 25.7238C92.1683 26.9362 92.1633 28.1485 92.1719 29.3597C92.1732 29.6312 92.1928 29.9077 92.2469 30.1744C92.3833 30.8448 92.7801 31.2167 93.4608 31.3097C93.8588 31.3635 94.2618 31.3648 94.6623 31.2791C95.257 31.1507 95.6047 30.78 95.7263 30.2013C95.7779 29.9542 95.7988 29.6985 95.8013 29.4453C95.8086 28.2036 95.8049 26.9631 95.8062 25.7214C95.8037 25.6161 95.8037 25.5109 95.8037 25.3849Z" fill="#00519E"/>
<path d="M126.033 25.3837C126.571 25.3837 127.104 25.3837 127.672 25.3837C127.672 25.5048 127.672 25.61 127.672 25.714C127.672 26.9349 127.668 28.1558 127.675 29.3768C127.677 29.6386 127.695 29.9052 127.744 30.1622C127.86 30.7665 128.213 31.1568 128.835 31.2815C129.254 31.366 129.677 31.3733 130.092 31.2938C130.807 31.1555 131.184 30.7274 131.271 29.9872C131.301 29.7352 131.316 29.4807 131.317 29.2275C131.322 28.0555 131.319 26.8835 131.319 25.7103C131.319 25.6063 131.319 25.5011 131.319 25.38C131.871 25.38 132.387 25.38 132.93 25.38C132.939 25.473 132.953 25.5574 132.952 25.6406C132.944 27.0377 132.946 28.4348 132.919 29.8306C132.907 30.4435 132.731 31.0246 132.409 31.5531C132.061 32.1244 131.547 32.4841 130.908 32.6566C129.96 32.9135 129.005 32.9111 128.059 32.6517C127.207 32.4168 126.627 31.8724 126.316 31.0454C126.157 30.6209 126.049 30.1805 126.04 29.7328C126.014 28.3271 126.015 26.9202 126.007 25.5134C126.007 25.4767 126.022 25.4399 126.033 25.3837Z" fill="#00519E"/>
<path d="M105.805 43.3377C103.974 43.3377 102.172 43.3377 100.375 43.3377C100.176 44.1525 100.732 45.2474 101.543 45.6511C102.163 45.9594 102.81 45.9839 103.455 45.7429C104.101 45.5006 104.51 44.9881 104.865 44.4008C105.177 44.6088 105.467 44.8021 105.776 45.0089C105.46 45.5875 105.056 46.0536 104.51 46.3888C103.79 46.8305 103.003 46.9675 102.167 46.8892C101.444 46.8219 100.794 46.5821 100.238 46.1087C99.5232 45.4982 99.1681 44.6993 99.0428 43.7916C98.9445 43.0759 98.9949 42.3688 99.2394 41.6825C99.8635 39.9282 101.487 39.2676 102.953 39.4535C103.82 39.5636 104.551 39.9123 105.088 40.6108C105.543 41.2042 105.741 41.8942 105.803 42.6257C105.821 42.8472 105.805 43.0723 105.805 43.3377ZM100.343 42.3395C101.741 42.3395 103.122 42.3395 104.502 42.3395C104.517 41.4366 103.89 40.6879 103 40.5313C102.913 40.5166 102.827 40.4995 102.738 40.4897C101.397 40.349 100.45 41.1748 100.343 42.3395Z" fill="#F78A00"/>
<path d="M60.3283 39.4364C62.4083 39.4315 64.1222 41.1088 64.1271 43.1567C64.132 45.322 62.3063 46.9014 60.3528 46.91C58.2495 46.9198 56.5466 45.2352 56.5503 43.1652C56.5528 41.0916 58.2273 39.4413 60.3283 39.4364ZM60.2816 45.771C61.0912 45.7649 61.7068 45.4811 62.1847 44.9244C62.7474 44.2675 62.9255 43.5004 62.7781 42.6539C62.5999 41.6262 61.8038 40.7919 60.7669 40.6121C59.7471 40.4359 58.8208 40.8519 58.2568 41.7143C57.6646 42.6208 57.688 43.843 58.3219 44.7214C58.8171 45.4077 59.494 45.7649 60.2816 45.771Z" fill="#F78A00"/>
<path d="M14.8131 35.9193C10.6678 35.6575 7.51399 33.8188 5.2251 30.4092C5.90452 30.0178 6.55568 29.6434 7.22404 29.2581C9.03131 31.9323 11.5414 33.393 14.7984 33.6243C14.8291 34.3693 14.807 35.1143 14.8131 35.9193Z" fill="#00519E"/>
<path d="M50.7966 12.2116C50.3924 12.4906 50.0165 12.7499 49.6479 13.0056C49.6147 12.9885 49.5902 12.9836 49.584 12.9701C49.3039 12.4123 48.7436 12.2031 48.0814 12.3303C47.9008 12.3658 47.7092 12.4734 47.5765 12.6019C47.2755 12.8979 47.3221 13.4167 47.6723 13.6552C47.8959 13.8069 48.1551 13.9109 48.407 14.0161C48.8038 14.1825 49.213 14.3219 49.6086 14.4908C49.8236 14.5825 50.0263 14.7049 50.2278 14.826C51.5387 15.615 51.3274 17.5724 50.1873 18.2649C49.8555 18.4655 49.5042 18.6025 49.1245 18.6759C48.3898 18.8166 47.66 18.8129 46.9425 18.5915C46.198 18.3627 45.6758 17.8771 45.3281 17.1602C45.7839 16.9118 46.2287 16.6708 46.6931 16.4176C46.7287 16.4934 46.7582 16.5509 46.7828 16.6109C46.9683 17.0598 47.3 17.3388 47.7743 17.444C48.1429 17.526 48.5151 17.5419 48.8776 17.4183C49.2474 17.2923 49.4575 17.0317 49.482 16.6353C49.5017 16.3258 49.3948 16.0738 49.1208 15.9184C48.9427 15.8169 48.751 15.7411 48.5618 15.6603C48.0925 15.4621 47.6146 15.2835 47.1551 15.0658C46.8835 14.9361 46.6268 14.7648 46.3872 14.5813C45.4326 13.8473 45.6132 12.5419 46.1771 11.9119C46.472 11.5816 46.8332 11.3528 47.2509 11.2195C47.9672 10.9907 48.697 10.9614 49.4267 11.1534C49.8531 11.266 50.229 11.4703 50.5165 11.8128C50.6148 11.929 50.6934 12.0624 50.7966 12.2116Z" fill="#00519E"/>
<path d="M68.775 11.4862C68.775 12.1089 68.775 12.6913 68.775 13.3274C68.6656 13.2369 68.5882 13.1721 68.5084 13.1084C67.8204 12.5591 67.0414 12.3781 66.1875 12.5812C65.4393 12.7586 64.9553 13.2442 64.7255 13.9685C64.5314 14.5814 64.54 15.2028 64.7341 15.8133C65.0044 16.6648 65.7059 17.1823 66.6557 17.241C67.4297 17.2887 68.1115 17.0807 68.6435 16.4898C68.6693 16.4617 68.7 16.4397 68.7566 16.3895C68.7688 16.4776 68.7848 16.5388 68.7848 16.5999C68.7873 17.0783 68.7787 17.5578 68.7897 18.0362C68.7934 18.1977 68.7357 18.2845 68.5932 18.3506C67.8363 18.7054 67.0439 18.824 66.2158 18.7359C65.7833 18.6907 65.3644 18.5928 64.9712 18.4069C63.7303 17.8184 63.0804 16.8128 62.8961 15.4818C62.8199 14.9337 62.8458 14.3881 62.9846 13.8535C63.3679 12.3744 64.3422 11.4924 65.8165 11.1559C66.6323 10.97 67.453 10.9883 68.2541 11.2636C68.4298 11.326 68.5968 11.4092 68.775 11.4862Z" fill="#00519E"/>
<path d="M71.7909 46.6115C71.7909 46.4843 71.7909 46.3803 71.7909 46.2763C71.7909 45.0639 71.7934 43.8528 71.7884 42.6404C71.7872 42.4068 71.7712 42.1719 71.7405 41.9395C71.6312 41.0978 71.195 40.6476 70.3559 40.5057C69.8571 40.4212 69.3755 40.4934 68.9258 40.7185C68.2685 41.0476 67.949 41.5994 67.911 42.3199C67.8987 42.5634 67.9011 42.808 67.9011 43.0527C67.8999 44.1183 67.9011 45.1838 67.9011 46.2482C67.9011 46.3546 67.9011 46.4622 67.9011 46.6078C67.508 46.6311 67.1296 46.6164 66.7155 46.6176C66.6615 46.0365 66.6971 45.4652 66.691 44.8951C66.6848 44.3189 66.6897 43.7415 66.6897 43.1653C66.6897 42.5988 66.6897 42.0312 66.6897 41.4648C66.6897 40.8898 66.6897 40.3148 66.6897 39.6982C67.0915 39.686 67.4674 39.6897 67.8827 39.6958C67.8827 40.0139 67.8827 40.3099 67.8827 40.606C67.9011 40.6121 67.9208 40.617 67.9392 40.6231C67.9687 40.5913 68.0019 40.5619 68.0289 40.5277C68.6973 39.6897 69.5941 39.3814 70.6335 39.4523C70.9616 39.4744 71.297 39.5441 71.6054 39.6566C72.3831 39.938 72.8156 40.5252 72.9667 41.3229C73.0023 41.5137 73.022 41.7107 73.0232 41.9052C73.0281 43.3904 73.0256 44.8768 73.0256 46.3619C73.0256 46.4304 73.0195 46.4977 73.0134 46.6091C72.6177 46.6299 72.2234 46.6225 71.7909 46.6115Z" fill="#F78A00"/>
<path d="M80.6111 39.7057C80.9993 39.7057 81.3691 39.7057 81.7648 39.7057C81.7648 40.0164 81.7648 40.3149 81.7648 40.677C81.8544 40.5926 81.9036 40.5559 81.9404 40.5107C82.6076 39.6898 83.4946 39.3839 84.5242 39.45C84.8338 39.4696 85.1496 39.5295 85.4432 39.6298C86.2836 39.9185 86.7406 40.5376 86.8819 41.3976C86.9114 41.5799 86.9237 41.7671 86.9237 41.9518C86.9273 43.4076 86.9261 44.8634 86.9249 46.3192C86.9249 46.4048 86.9151 46.4917 86.9077 46.5969C86.5072 46.5969 86.1214 46.5969 85.6963 46.5969C85.6963 46.4831 85.6963 46.3792 85.6963 46.2752C85.6963 45.1215 85.6987 43.9691 85.6938 42.8155C85.6926 42.5427 85.6779 42.2686 85.6496 41.997C85.5587 41.1162 85.1066 40.6342 84.2306 40.4984C83.6801 40.4128 83.1543 40.5082 82.6751 40.7994C82.1309 41.1309 81.8557 41.6276 81.82 42.254C81.8016 42.5757 81.8028 42.8987 81.8016 43.2204C81.7992 44.237 81.8004 45.2524 81.8004 46.2691C81.8004 46.373 81.8004 46.4782 81.8004 46.5981C81.6763 46.6055 81.5915 46.6153 81.5055 46.6165C81.2131 46.6189 80.9219 46.6177 80.6099 46.6177C80.6111 44.3068 80.6111 42.0252 80.6111 39.7057Z" fill="#F78A00"/>
<path d="M109.531 46.6042C109.112 46.6042 108.743 46.6042 108.356 46.6042C108.356 44.3055 108.356 42.0239 108.356 39.7166C108.732 39.7166 109.107 39.7166 109.515 39.7166C109.515 40.0163 109.515 40.3124 109.515 40.6794C109.603 40.5913 109.644 40.5571 109.677 40.5167C110.316 39.7166 111.172 39.4095 112.169 39.4426C112.442 39.4511 112.718 39.4915 112.981 39.5612C113.965 39.8255 114.573 40.5791 114.646 41.5957C114.655 41.7413 114.655 41.8881 114.655 42.0349C114.657 43.4418 114.655 44.8486 114.655 46.2567C114.655 46.3632 114.655 46.4696 114.655 46.5981C114.246 46.5981 113.859 46.5981 113.438 46.5981C113.433 46.4953 113.423 46.3925 113.423 46.2898C113.422 45.0493 113.427 43.8076 113.42 42.5671C113.418 42.3053 113.4 42.0386 113.349 41.7817C113.206 41.0415 112.744 40.6133 112.037 40.5118C111.408 40.42 110.825 40.5155 110.3 40.8788C109.884 41.1675 109.639 41.57 109.583 42.0728C109.551 42.3542 109.535 42.638 109.533 42.9206C109.529 44.0351 109.531 45.1484 109.531 46.2629C109.531 46.3681 109.531 46.4733 109.531 46.6042Z" fill="#F78A00"/>
<path d="M97.2805 18.4655C96.7448 18.4655 96.2264 18.4655 95.7091 18.4655C95.6391 18.2575 95.6182 7.1542 95.6858 6.77129C95.7189 6.76517 95.7558 6.75294 95.7927 6.75171C96.2829 6.75049 96.7743 6.75049 97.2608 6.75049C97.3284 6.96213 97.3468 18.0679 97.2805 18.4655Z" fill="#00519E"/>
<path d="M56.3755 20.8401C56.9345 20.8401 57.4616 20.8401 58.0071 20.8401C58.0071 24.7402 58.0071 28.6244 58.0071 32.5282C57.4616 32.5282 56.9271 32.5282 56.3755 32.5282C56.3755 28.6305 56.3755 24.7463 56.3755 20.8401Z" fill="#00519E"/>
<path d="M100.439 25.3641C100.985 25.3641 101.511 25.3641 102.076 25.3641C102.076 25.6748 102.076 25.9892 102.076 26.3048C102.097 26.3097 102.118 26.3146 102.139 26.3183C102.188 26.229 102.236 26.1385 102.286 26.0492C102.676 25.3567 103.289 25.0411 104.134 25.1316C104.505 25.1708 104.865 25.2576 105.222 25.4583C105.124 25.6932 105.027 25.9231 104.929 26.1544C104.834 26.377 104.74 26.5997 104.635 26.8419C104.283 26.6462 103.932 26.5507 103.552 26.563C102.992 26.5801 102.602 26.8297 102.381 27.341C102.159 27.8536 102.105 28.398 102.099 28.9461C102.087 30.03 102.093 31.1139 102.092 32.199C102.092 32.3042 102.092 32.4082 102.092 32.5306C101.524 32.5306 100.991 32.5306 100.439 32.5306C100.439 30.1352 100.439 27.7582 100.439 25.3641Z" fill="#00519E"/>
<path d="M72.9054 18.4606C72.3599 18.4606 71.8341 18.4606 71.2861 18.4606C71.2861 16.0824 71.2861 13.7151 71.2861 11.3027C71.8181 11.2868 72.3513 11.2916 72.9054 11.3027C72.9054 13.6894 72.9054 16.0579 72.9054 18.4606Z" fill="#00519E"/>
<path d="M52.1258 46.6029C51.7215 46.6029 51.3517 46.6029 50.9832 46.6029C50.9144 46.3998 50.8861 40.327 50.9537 39.7056C51.2854 39.6787 51.622 39.6921 51.9882 39.6995C51.9882 40.1289 51.9882 40.5436 51.9882 40.9595C52.0041 40.9656 52.0213 40.9718 52.0373 40.9767C52.0754 40.9302 52.1172 40.8849 52.1528 40.836C52.2953 40.6378 52.4243 40.4286 52.5779 40.2402C53.2241 39.4523 54.196 39.3276 55.0326 39.5637C55.0597 39.571 55.0818 39.5942 55.1334 39.6273C55.0093 39.9588 54.884 40.2928 54.7488 40.6537C54.594 40.6255 54.4441 40.5974 54.2942 40.5717C53.4367 40.42 52.6835 40.8225 52.3838 41.6165C52.1835 42.1474 52.1344 42.6992 52.1294 43.2558C52.1208 44.2614 52.127 45.267 52.127 46.2726C52.1258 46.3778 52.1258 46.4818 52.1258 46.6029Z" fill="#F78A00"/>
<path d="M76.1757 39.7057C76.57 39.7057 76.9484 39.7057 77.349 39.7057C77.349 42.0044 77.349 44.2921 77.349 46.5994C76.962 46.5994 76.5848 46.5994 76.2064 46.5994C76.14 46.3939 76.1093 40.4201 76.1757 39.7057Z" fill="#F78A00"/>
<path d="M72.1373 7.18609C72.7197 7.213 73.1571 7.67299 73.1374 8.23941C73.1178 8.82296 72.6374 9.28172 72.0673 9.26093C71.4997 9.24135 71.0218 8.73855 71.0427 8.18436C71.0635 7.61794 71.566 7.1604 72.1373 7.18609Z" fill="#00519E"/>
<path d="M76.7459 37.2442C76.2544 37.2406 75.8674 36.8515 75.8711 36.3671C75.8748 35.8912 76.2839 35.4887 76.7594 35.4948C77.2324 35.4997 77.6317 35.9071 77.6317 36.3854C77.6329 36.8711 77.2447 37.2479 76.7459 37.2442Z" fill="#F78A00"/>
</svg>
